<?xml version="1.0" encoding="UTF-8" standalone="no"?>
<!DOCTYPE svg PUBLIC "-//W3C//DTD SVG 1.1//EN" "http://www.w3.org/Graphics/SVG/1.1/DTD/svg11.dtd">
<svg width="100%" height="100%" viewBox="0 0 90 90" version="1.1" xmlns="http://www.w3.org/2000/svg" xmlns:xlink="http://www.w3.org/1999/xlink" xml:space="preserve" xmlns:serif="http://www.serif.com/" style="fill-rule:evenodd;clip-rule:evenodd;stroke-linejoin:round;stroke-miterlimit:2;">
    <g id="Layer1">
    </g>
    <g transform="matrix(0.15,0,0,0.15,-45,-15)">
        <path d="M600.001,133.333C527.578,133.333 518.497,133.641 490.053,134.938C461.67,136.233 442.285,140.741 425.323,147.332C407.787,154.147 392.916,163.266 378.091,178.09C363.266,192.915 354.147,207.788 347.333,225.323C340.74,242.285 336.233,261.67 334.937,290.053C333.64,318.497 333.333,327.578 333.333,400.001C333.333,472.422 333.64,481.503 334.937,509.947C336.233,538.33 340.74,557.715 347.333,574.677C354.148,592.212 363.267,607.084 378.091,621.91C392.916,636.734 407.787,645.853 425.323,652.668C442.285,659.259 461.67,663.767 490.053,665.062C518.497,666.359 527.578,666.667 600.001,666.667C672.422,666.667 681.503,666.359 709.947,665.062C738.33,663.767 757.715,659.259 774.677,652.668C792.212,645.853 807.084,636.734 821.91,621.91C836.734,607.084 845.853,592.212 852.668,574.677C859.259,557.715 863.767,538.33 865.062,509.947C866.359,481.503 866.667,472.422 866.667,400.001C866.667,327.578 866.359,318.497 865.062,290.053C863.767,261.67 859.259,242.285 852.668,225.323C845.853,207.788 836.734,192.915 821.91,178.09C807.084,163.266 792.212,154.147 774.677,147.332C757.715,140.741 738.33,136.233 709.947,134.938C681.503,133.641 672.422,133.333 600.001,133.333ZM600.001,181.381C671.203,181.381 679.637,181.653 707.756,182.936C733.756,184.122 747.876,188.466 757.272,192.118C769.72,196.956 778.603,202.734 787.934,212.065C797.266,221.397 803.044,230.281 807.882,242.727C811.534,252.124 815.878,266.244 817.064,292.244C818.347,320.363 818.619,328.797 818.619,400C818.619,471.203 818.347,479.637 817.064,507.756C815.878,533.756 811.534,547.876 807.882,557.272C803.044,569.72 797.266,578.603 787.934,587.934C778.603,597.266 769.719,603.044 757.273,607.882C747.876,611.534 733.756,615.878 707.756,617.064C679.642,618.347 671.208,618.619 600,618.619C528.792,618.619 520.36,618.347 492.244,617.063C466.244,615.878 452.124,611.534 442.728,607.882C430.28,603.044 421.397,597.266 412.066,587.934C402.735,578.603 396.956,569.719 392.118,557.273C388.466,547.876 384.122,533.756 382.936,507.756C381.653,479.637 381.381,471.203 381.381,400C381.381,328.797 381.653,320.363 382.936,292.244C384.122,266.244 388.466,252.124 392.118,242.728C396.956,230.28 402.735,221.397 412.065,212.066C421.397,202.734 430.281,196.956 442.727,192.118C452.124,188.466 466.244,184.122 492.244,182.936C520.363,181.653 528.797,181.381 600,181.381" style="fill:white;fill-rule:nonzero;"/>
        <path d="M600.001,488.889C550.908,488.889 511.111,449.092 511.111,400.001C511.111,350.908 550.908,311.111 600.001,311.111C649.092,311.111 688.889,350.908 688.889,400.001C688.889,449.092 649.092,488.889 600.001,488.889ZM600.001,263.063C524.371,263.063 463.063,324.371 463.063,400.001C463.063,475.629 524.371,536.937 600.001,536.937C675.629,536.937 736.937,475.629 736.937,400.001C736.937,324.371 675.629,263.063 600.001,263.063M774.348,257.653C774.348,275.327 760.02,289.652 742.347,289.652C724.675,289.652 710.348,275.327 710.348,257.653C710.348,239.98 724.675,225.652 742.347,225.652C760.02,225.652 774.348,239.98 774.348,257.653" style="fill:white;fill-rule:nonzero;"/>
    </g>
</svg>
