<?xml version="1.0" encoding="UTF-8" standalone="no"?>
<!DOCTYPE svg PUBLIC "-//W3C//DTD SVG 1.1//EN" "http://www.w3.org/Graphics/SVG/1.1/DTD/svg11.dtd">
<svg width="100%" height="100%" viewBox="0 0 244 244" version="1.1" xmlns="http://www.w3.org/2000/svg" xmlns:xlink="http://www.w3.org/1999/xlink" xml:space="preserve" xmlns:serif="http://www.serif.com/" style="fill-rule:evenodd;clip-rule:evenodd;stroke-linejoin:round;stroke-miterlimit:2;">
    <g transform="matrix(1,0,0,1,-32,-21)">
        <g transform="matrix(4.16667,0,0,4.16667,-988,-1068.51)">
            <g transform="matrix(0.392917,0,0,0.392917,274.042,319.968)">
                <path d="M0,-148.849C0,-148.849 16.619,-110.431 26.313,-100.738C36.007,-91.044 74.424,-74.425 74.424,-74.425C74.424,-74.425 36.007,-57.806 26.313,-48.112C16.619,-38.418 0,0 0,0C0,0 -16.619,-38.418 -26.313,-48.112C-36.007,-57.806 -74.424,-74.425 -74.424,-74.425C-74.424,-74.425 -36.007,-91.044 -26.313,-100.738C-16.619,-110.431 0,-148.849 0,-148.849" style="fill:white;fill-rule:nonzero;"/>
            </g>
        </g>
    </g>
</svg>
