<?xml version="1.0" encoding="UTF-8" standalone="no"?>
<!DOCTYPE svg PUBLIC "-//W3C//DTD SVG 1.1//EN" "http://www.w3.org/Graphics/SVG/1.1/DTD/svg11.dtd">
<svg width="100%" height="100%" viewBox="0 0 316 295" version="1.1" xmlns="http://www.w3.org/2000/svg" xmlns:xlink="http://www.w3.org/1999/xlink" xml:space="preserve" xmlns:serif="http://www.serif.com/" style="fill-rule:evenodd;clip-rule:evenodd;stroke-linejoin:round;stroke-miterlimit:2;">
    <g transform="matrix(1,0,0,1,-3059.21,-1810.43)">
        <g transform="matrix(-1.3048e-15,7.10301,-16.818,-3.08941e-15,18201.9,554.711)">
            <path d="M191.37,896.224L191.37,893.099L180.953,893.099L180.953,896.224L191.37,896.224ZM191.37,888.932L191.37,885.807L180.953,885.807L180.953,888.932L191.37,888.932ZM176.787,900.391L176.787,881.641L195.537,881.641L195.537,900.391L176.787,900.391Z" style="fill:rgb(253,242,242);fill-rule:nonzero;"/>
        </g>
        <g transform="matrix(1,0,0,1,0,-2)">
            <path d="M3181.85,2077.62L3251.92,2077.62L3251.92,1942.55L3321.99,1942.55L3321.99,2107.22L3111.77,2107.22L3111.77,1942.55L3181.85,1942.55L3181.85,2077.62Z" style="fill:rgb(253,242,242);fill-rule:nonzero;"/>
        </g>
    </g>
</svg>
